<?xml version="1.0" standalone="no"?>
<!DOCTYPE svg PUBLIC "-//W3C//DTD SVG 20010904//EN"
 "http://www.w3.org/TR/2001/REC-SVG-20010904/DTD/svg10.dtd">
<svg version="1.0" xmlns="http://www.w3.org/2000/svg"
 width="100.000000pt" height="100.000000pt" viewBox="0 0 100.000000 100.000000"
 preserveAspectRatio="xMidYMid meet">
<metadata>
Created by potrace 1.14, written by Peter Selinger 2001-2017
</metadata>
<g transform="translate(0.000000,100.000000) scale(0.100000,-0.100000)"
fill="#000000" stroke="none">
<path d="M0 800 c0 -182 2 -202 19 -219 16 -16 19 -36 20 -152 2 -121 4 -136
23 -156 33 -36 64 -30 75 13 8 37 27 43 30 9 0 -11 2 -27 2 -35 1 -12 3 -13
10 -1 5 7 14 10 21 6 6 -4 17 1 25 11 7 11 17 15 22 10 4 -4 -1 -13 -11 -20
-10 -6 -46 -34 -78 -63 -33 -29 -63 -52 -66 -52 -28 4 -34 -3 -28 -31 4 -24 2
-32 -12 -37 -23 -8 -52 -44 -52 -65 0 -17 30 -18 500 -18 l500 0 0 136 c0 109
-3 135 -13 131 -8 -3 -14 0 -15 6 0 7 -4 23 -8 36 -5 18 -4 23 7 19 7 -2 16
-15 20 -29 l7 -24 1 26 c1 14 -7 33 -18 43 -15 14 -18 29 -15 104 3 107 2 102
19 72 14 -24 14 -24 15 -4 0 12 -7 24 -15 28 -8 3 -15 13 -15 22 0 10 5 14 15
10 13 -5 15 23 15 209 l0 215 -155 0 -154 0 25 -37 c24 -35 25 -42 18 -124 -6
-86 -6 -87 20 -104 35 -23 28 -29 -15 -11 -20 8 -93 16 -179 20 -80 3 -163 10
-186 16 -23 5 -66 11 -97 12 -30 2 -54 5 -52 6 2 2 18 11 37 20 l33 17 3 93 3
92 -30 0 c-16 0 -31 -6 -34 -12 -4 -10 -7 -10 -18 0 -7 6 -37 12 -66 12 -46 0
-53 -3 -53 -20 0 -11 -7 -20 -15 -20 -12 0 -13 -4 -5 -19 18 -35 11 -35 -20 0
-16 19 -30 40 -30 47 0 6 -7 12 -15 12 -13 0 -15 -29 -15 -200z m206 163 c-7
-7 -26 7 -26 19 0 6 6 6 15 -2 9 -7 13 -15 11 -17z m-52 -56 c4 -17 3 -17 -17
-4 -12 8 -24 22 -25 31 -3 15 -1 16 17 5 11 -7 22 -21 25 -32z m-81 -145 c17
-29 17 -30 -3 -25 -14 4 -20 0 -20 -12 0 -21 -24 -14 -28 8 -2 10 3 17 12 17
20 0 20 14 1 34 -8 8 -15 20 -15 27 0 17 30 -12 53 -49z m-36 -77 c9 -25 -4
-29 -17 -6 -7 15 -7 21 0 21 6 0 13 -7 17 -15z m763 -31 c0 -8 -7 -14 -15 -14
-15 0 -21 21 -9 33 10 9 24 -2 24 -19z m-335 0 c20 -13 35 -14 87 -6 l63 10
37 -35 c24 -24 42 -34 53 -29 26 10 14 -26 -13 -40 -49 -24 -47 -38 19 -144
37 -60 30 -89 -31 -140 -58 -48 -123 -79 -168 -80 l-32 0 35 34 c19 19 35 36
35 38 0 2 -4 17 -9 35 -7 23 -5 37 5 50 32 43 3 69 -47 42 -14 -7 -30 -7 -54
1 -46 15 -45 34 5 57 14 6 19 12 13 12 -25 2 -13 30 15 33 l27 4 -27 12 c-45
19 -61 72 -22 72 8 0 12 5 9 10 -3 6 -16 10 -28 10 -39 0 -50 13 -36 43 14 31
30 34 64 11z m-425 -45 c0 -5 -4 -9 -10 -9 -5 0 -10 7 -10 16 0 8 5 12 10 9 6
-3 10 -10 10 -16z m330 -18 c-16 -32 -30 -34 -30 -7 0 19 5 26 20 26 17 0 19
-3 10 -19z m25 -41 c-3 -5 -11 -10 -16 -10 -6 0 -7 5 -4 10 3 6 11 10 16 10 6
0 7 -4 4 -10z m-61 -73 c9 -26 25 -66 36 -88 l21 -39 -25 -25 c-14 -14 -34
-25 -46 -25 -19 0 -20 6 -20 122 0 128 6 138 34 55z m486 33 c0 -5 -2 -10 -4
-10 -3 0 -8 5 -11 10 -3 6 -1 10 4 10 6 0 11 -4 11 -10z m0 -73 c0 -5 -4 -5
-10 -2 -5 3 -10 14 -10 23 0 15 2 15 10 2 5 -8 10 -19 10 -23z m-690 -77 c0
-5 -4 -10 -10 -10 -5 0 -10 5 -10 10 0 6 5 10 10 10 6 0 10 -4 10 -10z m319
-142 c21 -24 21 -26 4 -22 -10 3 -24 19 -31 36 -6 18 -8 27 -4 22 4 -5 18 -21
31 -36z"/>
<path d="M340 954 c-8 -8 -16 -35 -20 -59 -6 -40 -5 -43 9 -32 9 6 23 21 32
32 15 17 15 21 1 31 -9 6 -13 18 -9 28 8 20 3 21 -13 0z"/>
<path d="M530 951 c0 -6 4 -13 10 -16 6 -3 7 1 4 9 -7 18 -14 21 -14 7z"/>
<path d="M655 921 c-3 -5 -1 -12 5 -16 5 -3 10 1 10 9 0 18 -6 21 -15 7z"/>
</g>
</svg>
