<svg xmlns="http://www.w3.org/2000/svg" width="102" height="40" viewBox="0 0 102 40"><path d="M92.636,7.387 C92.508,5.54 91.703,5.163 90.856,5.163 C89.584,5.163 88.653,5.793 88.229,4.533 C87.719,3.064 88.864,2.938 92.212,1.637 C94.034,0.924 96.704,0 97.382,0 C98.653,0 98.653,1.007 98.653,1.68 C98.653,3.148 98.569,5.037 98.569,6.716 L98.569,18.552 C98.569,20.189 98.612,22.539 98.78,25.267 C99.12,30.137 100.772,25.814 101.96,28.374 C102.467,29.464 98.06,31.899 97.085,31.899 C95.179,31.899 94.372,30.598 93.568,28.962 C91.873,30.43 89.415,32.067 86.449,32.067 C82.423,32.067 78.229,28.206 78.229,23.043 C78.229,16.118 83.356,13.053 87.55,13.053 C91.068,13.053 92.848,14.438 92.848,14.438 C92.848,14.438 92.848,10.535 92.636,7.388 L92.636,7.387 Z M92.932,20.315 C92.932,17.881 90.942,15.362 88.186,15.362 C85.601,15.362 83.609,17.629 83.609,20.986 C83.609,24.722 85.983,27.87 89.288,27.87 C91.661,27.87 93.143,26.527 93.143,26.527 L92.933,20.315 L92.932,20.315 Z M68.226,6.465 C68.226,8.311 69.794,9.695 71.574,9.695 C73.355,9.695 74.881,8.311 74.881,6.465 C74.881,4.617 73.355,3.232 71.574,3.232 C69.794,3.232 68.226,4.617 68.226,6.464 L68.226,6.465 Z M74.584,29.885 C74.584,38.698 68.184,40 65.219,40 C63.439,40 60.769,39.455 59.157,38.153 C58.946,37.985 58.946,37.649 59.157,37.44 C59.455,37.146 59.497,37.146 61.234,36.012 C62.972,34.879 63.227,34.754 63.608,34.754 C64.201,34.754 64.413,36.852 66.362,36.852 C68.057,36.852 68.82,35.257 68.82,29.507 L68.82,20.945 C68.82,15.237 65.768,18.51 65.09,16.537 C65.0118948,16.3508189 64.9688396,16.151816 64.963,15.95 C64.963,14.9 66.278,14.774 67.295,14.565 C71.405,13.641 73.312,13.305 73.779,13.305 C74.456,13.305 74.795,13.767 74.795,14.649 C74.795,15.237 74.585,17.503 74.585,18.719 L74.585,29.884 L74.584,29.885 Z M54.073,29.716 C49.92,29.716 48.521,24.806 48.521,20.945 C48.521,17.797 49.751,15.404 52.335,15.404 C56.489,15.404 57.888,20.357 57.888,24.218 C57.888,27.366 56.658,29.716 54.073,29.716 L54.073,29.716 Z M53.438,32.067 C60.006,32.067 63.651,26.989 63.651,22.414 C63.651,17.964 60.006,13.054 52.844,13.054 C46.276,13.054 42.631,18.133 42.631,22.707 C42.631,27.157 46.276,32.067 53.438,32.067 Z M54.4539609,6.841 C54.4539609,8.436 55.726,9.696 57.336,9.696 C58.947,9.696 60.176,8.436 60.176,6.841 C60.176,5.247 58.947,3.94599928 57.336,3.94599928 C56.5692239,3.94545712 55.8338871,4.25070814 55.2929159,4.79411956 C54.7519447,5.33753098 54.4500062,6.07423413 54.4539609,6.841 L54.4539609,6.841 Z M45.8089609,6.841 C45.8089609,8.436 47.081,9.696 48.691,9.696 C50.301,9.696 51.531,8.436 51.531,6.841 C51.531,5.247 50.301,3.94599928 48.691,3.94599928 C47.9242239,3.94545712 47.1888871,4.25070814 46.6479159,4.79411956 C46.1069447,5.33753098 45.8050062,6.07423413 45.8089609,6.841 L45.8089609,6.841 Z M27.459,20.525 C27.459,15.026 24.069,18.93 24.069,15.782 C24.069,14.942 25.299,14.691 27.375,14.145 C28.985,13.725 31.062,12.969 31.655,12.969 C32.334,12.969 32.672,15.32 32.757,15.656 C32.757,15.656 34.283,13.18 37.377,13.18 C39.496,13.18 41.445,14.733 41.445,17.167 C41.445,19.139 39.962,20.734 38.139,20.734 C36.868,20.734 36.741,20.273 36.741,20.104 C36.741,19.896 36.911,19.644 36.911,18.971 C36.911,18.049 36.147,17.251 34.876,17.251 C33.689,17.251 32.8,18.258 32.8,18.384 L32.8,25.646 C32.8,30.64 38.393,27.996 38.393,30.052 C38.393,31.312 38.055,31.395 36.741,31.395 C35.766,31.395 30.808,31.145 30.808,31.145 C29.198,31.145 28.095,31.311 25.426,31.311 C24.876,31.311 24.239,31.227 24.239,30.178 C24.239,28.374 27.459,30.22 27.459,25.981 L27.459,20.525 L27.459,20.525 Z M4.704,25.603 C4.704,30.556 0.042,28.079 0.042,30.22 C0.042,31.522 0.89,31.522 1.525,31.522 C3.051,31.522 5.805,31.186 10.679,31.186 C13.984,31.186 16.146,31.354 17.629,31.354 C18.265,31.354 18.815,31.227 18.815,30.052 C18.815,29.002 17.925,28.878 16.696,28.878 C16.4,28.878 16.061,28.919 15.764,28.919 C13.646,28.919 11.103,28.667 11.103,24.386 L11.103,16.033 C11.103,16.033 11.653,15.95 12.671,15.95 C19.324,15.95 15.807,21.994 18.773,21.994 C19.96,21.994 20.002,21.113 20.002,19.937 C20.002,18.594 19.917,17.965 19.917,13.977 C19.917,12.424 20.044,11.585 20.044,10.787 C20.044,8.982 19.536,8.814 18.815,8.814 C16.23,8.814 19.239,13.264 12.671,13.264 C11.357,13.264 11.103,13.096 11.103,13.096 L11.103,4.575 C11.188,4.575 12.755,4.03 15.51,4.03 C25.002,4.03 20.638,9.654 23.816,9.654 C25.342,9.654 25.256,8.059 25.511,5.414 C25.596,4.366 25.723,3.484 25.723,2.812 C25.723,1.932 25.511,1.427 24.833,1.427 C23.223,1.427 19.875,1.805 10.594,1.805 C8.136,1.805 4.195,1.595 1.949,1.595 C0.762,1.595 2.13162821e-14,1.805 2.13162821e-14,2.897 C2.13162821e-14,5.96 4.45,1.595 4.534,9.402 L4.704,25.603 L4.704,25.603 Z"></path></svg>